<svg width="96" height="96" viewBox="0 0 96 96" fill="none" xmlns="http://www.w3.org/2000/svg">
<rect width="96" height="96" fill="#1E1E1E"/>
<path d="M43 34.8619C43 42.0718 36.8073 46 29.3761 46C23.9761 46 19.567 45.0055 16 41.326L21.5486 35.7569C23.3817 37.5967 26.6018 38.2431 29.4257 38.2431C32.844 38.2431 34.4789 37.0995 34.4789 35.0608C34.4789 34.2155 34.2807 33.5193 33.7853 32.9724C33.3394 32.5249 32.5963 32.1768 31.4569 32.0276L27.1963 31.4309C24.0752 30.9834 21.6972 29.9392 20.1119 28.2983C18.4771 26.6077 17.6844 24.221 17.6844 21.1878C17.6844 14.7238 22.5394 10 30.5651 10C35.6183 10 39.433 11.1934 42.455 14.2265L37.0055 19.6961C34.7761 17.4586 31.8532 17.6077 30.3174 17.6077C27.2954 17.6077 26.0569 19.3481 26.0569 20.8895C26.0569 21.337 26.2055 21.9834 26.7505 22.5304C27.1963 22.9779 27.9394 23.4254 29.178 23.5746L33.4385 24.1713C36.6092 24.6188 38.8881 25.6133 40.3743 27.105C42.2569 28.9448 43 31.5801 43 34.8619Z" fill="white"/>
<path d="M79.9991 28C79.9991 33.3204 80.1541 38.2928 76.2798 42.0221C73.5936 44.6077 70.4942 46 66 46C61.5058 46 58.4064 44.6077 55.7202 42.0221C51.8459 38.2928 52.0009 33.3204 52.0009 28C52.0009 22.6796 51.8459 17.7072 55.7202 13.9779C58.4064 11.3923 61.5058 10 66 10C70.4942 10 73.5936 11.3923 76.2798 13.9779C80.1541 17.7072 79.9991 22.6796 79.9991 28ZM70.9591 28C70.9591 21.5359 70.4425 20.3425 69.616 19.2983C68.9445 18.453 67.653 17.7569 66 17.7569C64.347 17.7569 63.0555 18.453 62.384 19.2983C61.5575 20.3425 61.0409 21.5359 61.0409 28C61.0409 34.4641 61.5575 35.6077 62.384 36.6519C63.0555 37.4972 64.347 38.2431 66 38.2431C67.653 38.2431 68.9445 37.4972 69.616 36.6519C70.4425 35.6077 70.9591 34.4641 70.9591 28Z" fill="white"/>
<path d="M43 87H35.5701L24.4982 68.8989V87H16V51H23.4299L34.5018 69.1011V51H43V87Z" fill="white"/>
<path d="M80 71.2376C80 76.9558 79.1148 80.2873 76.4591 83.0221C73.4592 86.1547 70.1151 87 66.2791 87C62.1973 87 59.099 85.6077 56.5417 83.0221C52.8533 79.2928 53.0008 74.3204 53.0008 69C53.0008 63.6796 52.8533 58.7072 56.5417 54.9779C59.099 52.3923 62.0497 51 66.2791 51C75.2788 51 79.1148 56.9171 79.9508 62.7348H71.2953C70.6068 60.0497 69.2298 58.7569 66.2791 58.7569C64.7054 58.7569 63.5251 59.453 62.8858 60.2983C62.0989 61.3425 61.6071 62.5359 61.6071 69C61.6071 75.4641 62.0989 76.7072 62.8858 77.7514C63.5251 78.5967 64.7054 79.2431 66.2791 79.2431C68.0987 79.2431 69.3282 78.6961 70.115 77.8508C71.0986 76.8564 71.4429 75.4144 71.4429 74.0718V73.5746H66.2791V66.3149H80V71.2376Z" fill="white"/>
</svg>
