<svg width="20" height="20" viewBox="0 0 20 20" fill="none" xmlns="http://www.w3.org/2000/svg">
<g clip-path="url(#clip0_756_1259)">
<path d="M10 0C10.5523 0 11 0.447715 11 1V18H13V15C13 14.4477 13.4477 14 14 14C14.5523 14 15 14.4477 15 15V18H17V6C17 5.44772 17.4477 5 18 5C18.5523 5 19 5.44772 19 6V18L19.1025 18.0049C19.6067 18.0562 20 18.4823 20 19C20 19.5523 19.5523 20 19 20H1C0.447715 20 0 19.5523 0 19C0 18.4477 0.447715 18 1 18V13C1 12.4477 1.44772 12 2 12C2.55228 12 3 12.4477 3 13V18H5V9C5 8.44772 5.44772 8 6 8C6.55228 8 7 8.44772 7 9V18H9V1C9 0.447715 9.44772 0 10 0Z" fill="#B3B3B3"/>
</g>
<defs>
<clipPath id="clip0_756_1259">
<rect width="20" height="20" fill="white"/>
</clipPath>
</defs>
</svg>
