<svg width="20" height="20" viewBox="0 0 20 20" fill="none" xmlns="http://www.w3.org/2000/svg">
<path d="M15.7825 19C15.5275 19 15.3138 18.9161 15.1413 18.7483C14.9688 18.5805 14.8825 18.3726 14.8825 18.1245C14.8825 18.0078 14.905 17.8911 14.95 17.7744C14.995 17.6576 15.055 17.5628 15.13 17.4898C15.775 16.8624 16.2813 16.1402 16.6488 15.3231C17.0163 14.506 17.2 13.616 17.2 12.653C17.2 11.7046 17.0163 10.8182 16.6488 9.99378C16.2813 9.16939 15.775 8.4435 15.13 7.81609C15.055 7.74313 14.995 7.64829 14.95 7.53157C14.905 7.41484 14.8825 7.29811 14.8825 7.18138C14.8825 6.93334 14.9688 6.72542 15.1413 6.55762C15.3138 6.38983 15.5275 6.30593 15.7825 6.30593C15.9025 6.30593 16.0188 6.33147 16.1313 6.38253C16.2438 6.4336 16.3375 6.49561 16.4125 6.56857C17.2225 7.35648 17.8563 8.27205 18.3138 9.3153C18.7713 10.3585 19 11.4711 19 12.653C19 13.8494 18.7713 14.9656 18.3138 16.0016C17.8563 17.0375 17.2225 17.9495 16.4125 18.7374C16.3375 18.8103 16.2438 18.8723 16.1313 18.9234C16.0188 18.9745 15.9025 19 15.7825 19ZM13.2175 16.505C12.9625 16.505 12.7488 16.4211 12.5763 16.2533C12.4038 16.0855 12.3175 15.8776 12.3175 15.6295C12.3175 15.5128 12.3438 15.3997 12.3963 15.2903C12.4488 15.1808 12.5125 15.0896 12.5875 15.0167C12.9025 14.7103 13.15 14.3565 13.33 13.9552C13.51 13.554 13.6 13.1199 13.6 12.653C13.6 12.1861 13.51 11.752 13.33 11.3507C13.15 10.9495 12.9025 10.5957 12.5875 10.2892C12.5125 10.2163 12.4488 10.1251 12.3963 10.0157C12.3438 9.90623 12.3175 9.79315 12.3175 9.67643C12.3175 9.42838 12.4038 9.22046 12.5763 9.05267C12.7488 8.88487 12.9625 8.80097 13.2175 8.80097C13.3375 8.80097 13.4575 8.82651 13.5775 8.87758C13.6975 8.92864 13.795 8.99065 13.87 9.06361C14.35 9.53052 14.725 10.0704 14.995 10.6832C15.265 11.296 15.4 11.9526 15.4 12.653C15.4 13.3533 15.2613 14.0136 14.9838 14.6337C14.7063 15.2538 14.3275 15.7973 13.8475 16.2642C13.7725 16.3372 13.6788 16.3955 13.5663 16.4393C13.4538 16.4831 13.3375 16.505 13.2175 16.505ZM1 18.7374V16.9865C1.69 16.9865 2.3725 16.9427 3.0475 16.8551C3.7225 16.7676 4.3825 16.6071 5.0275 16.3736C4.3375 16.0381 3.79375 15.5529 3.39625 14.9182C2.99875 14.2835 2.8 13.5941 2.8 12.8499V10.8583H6.4V8.23193H9.4375L6.895 3.28562C6.775 3.06676 6.75625 2.84424 6.83875 2.61809C6.92125 2.39193 7.075 2.22048 7.3 2.10376C7.525 1.98703 7.75375 1.96879 7.98625 2.04904C8.21875 2.12929 8.395 2.27885 8.515 2.49771L11.0575 7.44402C11.3575 8.02766 11.335 8.5967 10.99 9.15115C10.645 9.70561 10.135 9.98283 9.46 9.98283H8.2V10.8583C8.2 11.3398 8.02375 11.752 7.67125 12.0949C7.31875 12.4378 6.895 12.6092 6.4 12.6092H4.6V12.8499C4.6 13.3606 4.76125 13.8093 5.08375 14.196C5.40625 14.5826 5.815 14.8416 6.31 14.9729L6.58 15.0386C7.18 15.1845 7.5175 15.5493 7.5925 16.1329C7.6675 16.7165 7.435 17.1543 6.895 17.4461C5.995 17.9276 5.04625 18.2632 4.04875 18.4528C3.05125 18.6425 2.035 18.7374 1 18.7374Z" fill="#A6A6A6"/>
</svg>
